# xmcd CD database file
#
# Track frame offsets:
#	150
#	29256
#	58369
#	92878
#	123690
#
# Disc length: 1995 seconds
#
# Revision: 0
# Processed by: cddbd v1.5.2PL0 Copyright (c) Steve Scherf et al.
# Submitted via: CDex 1.51
#
DISCID=4607c905
DTITLE=Susanne Huehn - Weitere Schutzengelgeschichten
DYEAR=1900
DGENRE=Kinder-Meditation
TTITLE0=Die Kristallhoehle
TTITLE1=Auf der Blumenwiese
TTITLE2=Trommeln mit Indianern
TTITLE3=Dein magische Schutzort
TTITLE4=Der Seerosenteich
EXTD=
EXTT0=
EXTT1=
EXTT2=
EXTT3=
EXTT4=
PLAYORDER=
